<svg width="82" height="82" viewBox="0 0 82 82" fill="none" xmlns="http://www.w3.org/2000/svg">
<path d="M41 22.25C37.2916 22.25 33.6665 23.3497 30.5831 25.4099C27.4996 27.4702 25.0964 30.3986 23.6773 33.8247C22.2581 37.2508 21.8868 41.0208 22.6103 44.6579C23.3337 48.2951 25.1195 51.636 27.7417 54.2583C30.364 56.8805 33.7049 58.6663 37.3421 59.3897C40.9792 60.1132 44.7492 59.7419 48.1753 58.3227C51.6014 56.9036 54.5298 54.5004 56.5901 51.4169C58.6503 48.3335 59.75 44.7084 59.75 41C59.7448 36.0288 57.7677 31.2626 54.2525 27.7475C50.7374 24.2323 45.9712 22.2552 41 22.25ZM41 53.5C38.5277 53.5 36.111 52.7669 34.0554 51.3934C31.9998 50.0199 30.3976 48.0676 29.4515 45.7835C28.5054 43.4995 28.2579 40.9861 28.7402 38.5614C29.2225 36.1366 30.413 33.9093 32.1612 32.1612C33.9093 30.413 36.1366 29.2225 38.5614 28.7402C40.9861 28.2579 43.4995 28.5054 45.7835 29.4515C48.0676 30.3976 50.0199 31.9998 51.3934 34.0554C52.7669 36.111 53.5 38.5277 53.5 41C53.5 44.3152 52.183 47.4946 49.8388 49.8388C47.4946 52.183 44.3152 53.5 41 53.5ZM59.75 0.375H22.25C16.4503 0.381204 10.8899 2.68788 6.78889 6.78889C2.68788 10.8899 0.381204 16.4503 0.375 22.25V59.75C0.381204 65.5497 2.68788 71.1101 6.78889 75.2111C10.8899 79.3121 16.4503 81.6188 22.25 81.625H59.75C65.5497 81.6188 71.1101 79.3121 75.2111 75.2111C79.3121 71.1101 81.6188 65.5497 81.625 59.75V22.25C81.6188 16.4503 79.3121 10.8899 75.2111 6.78889C71.1101 2.68788 65.5497 0.381204 59.75 0.375ZM75.375 59.75C75.375 63.894 73.7288 67.8683 70.7985 70.7985C67.8683 73.7288 63.894 75.375 59.75 75.375H22.25C18.106 75.375 14.1317 73.7288 11.2015 70.7985C8.2712 67.8683 6.625 63.894 6.625 59.75V22.25C6.625 18.106 8.2712 14.1317 11.2015 11.2015C14.1317 8.2712 18.106 6.625 22.25 6.625H59.75C63.894 6.625 67.8683 8.2712 70.7985 11.2015C73.7288 14.1317 75.375 18.106 75.375 22.25V59.75ZM66 20.6875C66 21.6146 65.7251 22.5209 65.21 23.2917C64.6949 24.0626 63.9629 24.6634 63.1063 25.0182C62.2498 25.373 61.3073 25.4658 60.398 25.2849C59.4887 25.1041 58.6535 24.6576 57.9979 24.0021C57.3424 23.3465 56.8959 22.5113 56.7151 21.602C56.5342 20.6927 56.627 19.7502 56.9818 18.8937C57.3366 18.0371 57.9374 17.3051 58.7083 16.79C59.4791 16.2749 60.3854 16 61.3125 16C62.5557 16 63.748 16.4939 64.6271 17.3729C65.5061 18.252 66 19.4443 66 20.6875Z" fill="black"/>
</svg>
