<svg width="82" height="85" viewBox="0 0 82 85" fill="none" xmlns="http://www.w3.org/2000/svg">
<path d="M78.5 22.125C73.5288 22.1198 68.7626 20.1427 65.2475 16.6275C61.7323 13.1124 59.7552 8.34622 59.75 3.375C59.75 2.5462 59.4208 1.75134 58.8347 1.16529C58.2487 0.57924 57.4538 0.25 56.625 0.25H41C40.1712 0.25 39.3763 0.57924 38.7903 1.16529C38.2042 1.75134 37.875 2.5462 37.875 3.375V54.9375C37.8744 56.3355 37.4986 57.7077 36.7869 58.911C36.0753 60.1143 35.0538 61.1045 33.829 61.7785C32.6042 62.4525 31.221 62.7855 29.8237 62.7428C28.4263 62.7 27.0661 62.2831 25.8848 61.5356C24.7035 60.788 23.7444 59.7371 23.1076 58.4926C22.4708 57.2481 22.1796 55.8555 22.2644 54.4601C22.3492 53.0647 22.8068 51.7176 23.5896 50.5593C24.3724 49.401 25.4517 48.474 26.7148 47.875C27.2492 47.6214 27.7005 47.2214 28.0165 46.7215C28.3325 46.2216 28.5002 45.6422 28.5 45.0508V28.375C28.5002 27.9182 28.4002 27.4669 28.2072 27.0529C28.0141 26.6389 27.7327 26.2723 27.3826 25.9788C27.0325 25.6854 26.6224 25.4722 26.181 25.3544C25.7397 25.2366 25.2779 25.2169 24.8281 25.2969C10.8867 27.7813 0.375 40.5234 0.375 54.9375C0.375 62.8111 3.50278 70.3622 9.07027 75.9297C14.6378 81.4972 22.1889 84.625 30.0625 84.625C37.9361 84.625 45.4872 81.4972 51.0547 75.9297C56.6222 70.3622 59.75 62.8111 59.75 54.9375V39.4258C65.5377 42.4455 71.9719 44.0152 78.5 44C79.3288 44 80.1237 43.6708 80.7097 43.0847C81.2958 42.4987 81.625 41.7038 81.625 40.875V25.25C81.625 24.4212 81.2958 23.6263 80.7097 23.0403C80.1237 22.4542 79.3288 22.125 78.5 22.125ZM75.375 37.6094C69.2681 37.0682 63.4205 34.8887 58.4492 31.3008C57.982 30.9648 57.431 30.7645 56.8571 30.7217C56.2832 30.679 55.7087 30.7955 55.1968 31.0585C54.685 31.3215 54.2557 31.7208 53.9562 32.2122C53.6568 32.7037 53.499 33.2683 53.5 33.8438V54.9375C53.5 61.1535 51.0307 67.1149 46.6353 71.5103C42.2399 75.9057 36.2785 78.375 30.0625 78.375C23.8465 78.375 17.8851 75.9057 13.4897 71.5103C9.0943 67.1149 6.625 61.1535 6.625 54.9375C6.625 44.8203 13.125 35.7461 22.25 32.4375V43.2461C20.2299 44.5958 18.5939 46.4459 17.5016 48.6161C16.4092 50.7862 15.8977 53.2023 16.0169 55.6289C16.1362 58.0555 16.8821 60.4099 18.1819 62.4624C19.4818 64.515 21.2912 66.1958 23.4339 67.341C25.5766 68.4862 27.9795 69.0568 30.4083 68.997C32.8371 68.9373 35.209 68.2493 37.2928 67.0001C39.3766 65.751 41.1013 63.9832 42.2986 61.8692C43.496 59.7552 44.1252 57.367 44.125 54.9375V6.5H53.6953C54.3981 12.0042 56.9082 17.1194 60.8319 21.0431C64.7556 24.9668 69.8708 27.4769 75.375 28.1797V37.6094Z" fill="black"/>
</svg>
