<svg width="23" height="24" viewBox="0 0 23 24" fill="none" xmlns="http://www.w3.org/2000/svg">
<path d="M8.77038 23.1969C8.07438 23.1969 7.41518 22.8721 6.99278 22.3121L1.27598 14.7585C1.09883 14.5253 0.969445 14.2595 0.895261 13.9763C0.821078 13.6931 0.803552 13.398 0.843689 13.1079C0.883826 12.8179 0.980836 12.5387 1.12915 12.2862C1.27747 12.0338 1.47417 11.8131 1.70798 11.6369C1.94119 11.4592 2.20723 11.3294 2.49078 11.255C2.77434 11.1805 3.06982 11.1628 3.36023 11.203C3.65063 11.2431 3.93024 11.3403 4.18295 11.4889C4.43567 11.6375 4.65651 11.8346 4.83278 12.0689L8.59438 17.0353L18.052 1.84806C18.3656 1.34662 18.8654 0.990055 19.4416 0.856578C20.0178 0.723102 20.6234 0.823611 21.1256 1.13606C22.1704 1.78566 22.492 3.16166 21.8392 4.20806L10.6648 22.1441C10.474 22.4516 10.2111 22.708 9.89882 22.8909C9.58653 23.0738 9.23433 23.1777 8.87278 23.1937L8.77038 23.1969Z" fill="#5EE9D3"/>
</svg>
