<svg width="28" height="29" viewBox="0 0 28 29" fill="none" xmlns="http://www.w3.org/2000/svg">
<path fill-rule="evenodd" clip-rule="evenodd" d="M5.425 19.8588C5.5065 19.7501 5.61219 19.6619 5.73369 19.6012C5.85519 19.5404 5.98916 19.5088 6.125 19.5088H10.5C10.7321 19.5088 10.9546 19.601 11.1187 19.7651C11.2828 19.9292 11.375 20.1517 11.375 20.3838C11.375 20.6159 11.2828 20.8384 11.1187 21.0025C10.9546 21.1666 10.7321 21.2588 10.5 21.2588H6.5625L2.625 26.5088H25.375L21.4375 21.2588H17.5C17.2679 21.2588 17.0454 21.1666 16.8813 21.0025C16.7172 20.8384 16.625 20.6159 16.625 20.3838C16.625 20.1517 16.7172 19.9292 16.8813 19.7651C17.0454 19.601 17.2679 19.5088 17.5 19.5088H21.875C22.0108 19.5088 22.1448 19.5404 22.2663 19.6012C22.3878 19.6619 22.4935 19.7501 22.575 19.8588L27.825 26.8588C27.9225 26.9888 27.9819 27.1434 27.9965 27.3052C28.0111 27.4671 27.9803 27.6298 27.9076 27.7751C27.835 27.9204 27.7232 28.0427 27.585 28.1281C27.4468 28.2135 27.2875 28.2588 27.125 28.2588H0.875C0.712502 28.2588 0.553215 28.2135 0.414986 28.1281C0.276757 28.0427 0.165048 27.9204 0.0923766 27.7751C0.0197053 27.6298 -0.0110572 27.4671 0.00353601 27.3052C0.0181292 27.1434 0.0775016 26.9888 0.175 26.8588L5.425 19.8588Z" fill="white"/>
<path fill-rule="evenodd" clip-rule="evenodd" d="M14 2.00814C13.3106 2.00814 12.6279 2.14394 11.9909 2.40777C11.354 2.67161 10.7752 3.05832 10.2877 3.54583C9.80018 4.03334 9.41347 4.61209 9.14963 5.24905C8.8858 5.88601 8.75 6.5687 8.75 7.25814C8.75 7.94758 8.8858 8.63027 9.14963 9.26723C9.41347 9.90419 9.80018 10.4829 10.2877 10.9705C10.7752 11.458 11.354 11.8447 11.9909 12.1085C12.6279 12.3723 13.3106 12.5081 14 12.5081C15.3924 12.5081 16.7277 11.955 17.7123 10.9705C18.6969 9.98588 19.25 8.65053 19.25 7.25814C19.25 5.86575 18.6969 4.5304 17.7123 3.54583C16.7277 2.56126 15.3924 2.00814 14 2.00814ZM7 7.25814C7.00013 5.91104 7.38895 4.59258 8.11982 3.46098C8.85068 2.32937 9.89254 1.43269 11.1204 0.878527C12.3482 0.324363 13.7099 0.136257 15.042 0.33678C16.3741 0.537302 17.62 1.11794 18.6303 2.00901C19.6406 2.90008 20.3723 4.06374 20.7377 5.36036C21.103 6.65698 21.0864 8.03147 20.69 9.31892C20.2935 10.6064 19.534 11.7521 18.5026 12.6186C17.4711 13.485 16.2115 14.0355 14.875 14.2039V23.8831C14.875 24.1152 14.7828 24.3378 14.6187 24.5019C14.4546 24.666 14.2321 24.7581 14 24.7581C13.7679 24.7581 13.5454 24.666 13.3813 24.5019C13.2172 24.3378 13.125 24.1152 13.125 23.8831V14.2056C11.4327 13.9924 9.87646 13.1687 8.74863 11.8891C7.6208 10.6094 6.99899 8.96383 7 7.25814Z" fill="white"/>
</svg>
