<svg width="32" height="27" viewBox="0 0 32 27" fill="none" xmlns="http://www.w3.org/2000/svg">
<path d="M8.20237 0C9.07291 0 9.90778 0.345817 10.5233 0.961376C11.1389 1.57694 11.4847 2.41181 11.4847 3.28234C11.4847 4.15288 11.1389 4.98775 10.5233 5.60331C9.90778 6.21887 9.07291 6.56469 8.20237 6.56469C7.33184 6.56469 6.49697 6.21887 5.88141 5.60331C5.26585 4.98775 4.92003 4.15288 4.92003 3.28234C4.92003 2.41181 5.26585 1.57694 5.88141 0.961376C6.49697 0.345817 7.33184 0 8.20237 0ZM4.50974 24.6176V20.5147H3.59683C3.03781 20.5147 2.6429 19.9659 2.81728 19.4325L4.41229 14.6423L2.94549 16.581C2.39673 17.3041 1.36587 17.4426 0.647854 16.8989C-0.0701588 16.3553 -0.213761 15.3244 0.329877 14.6013L3.35066 10.6163C4.49948 9.09825 6.29964 8.20586 8.20237 8.20586C10.1051 8.20586 11.9053 9.09825 13.0541 10.6163L16.0749 14.6013C16.6236 15.3244 16.48 16.3553 15.7569 16.8989C15.0338 17.4426 14.0029 17.3041 13.4593 16.581L11.9925 14.6423L13.5875 19.4325C13.767 19.9659 13.3669 20.5147 12.8079 20.5147H11.895V24.6176C11.895 25.5254 11.1616 26.2588 10.2538 26.2588C9.34607 26.2588 8.61267 25.5254 8.61267 24.6176V20.5147H7.79208V24.6176C7.79208 25.5254 7.05868 26.2588 6.15091 26.2588C5.24314 26.2588 4.50974 25.5254 4.50974 24.6176ZM24.6141 0C25.4846 0 26.3195 0.345817 26.9351 0.961376C27.5506 1.57694 27.8964 2.41181 27.8964 3.28234C27.8964 4.15288 27.5506 4.98775 26.9351 5.60331C26.3195 6.21887 25.4846 6.56469 24.6141 6.56469C23.7436 6.56469 22.9087 6.21887 22.2931 5.60331C21.6776 4.98775 21.3317 4.15288 21.3317 3.28234C21.3317 2.41181 21.6776 1.57694 22.2931 0.961376C22.9087 0.345817 23.7436 0 24.6141 0ZM24.2038 19.6941V24.6176C24.2038 25.5254 23.4704 26.2588 22.5626 26.2588C21.6549 26.2588 20.9215 25.5254 20.9215 24.6176V15.4116L20.2599 16.463C19.7778 17.2323 18.7623 17.458 17.9981 16.9759C17.2339 16.4938 17.0032 15.4783 17.4853 14.7141L20.1368 10.5035C21.0394 9.0726 22.6139 8.20073 24.3012 8.20073H24.9321C26.6245 8.20073 28.199 9.06748 29.0965 10.5035L31.7481 14.7193C32.2302 15.4886 31.9994 16.4989 31.2352 16.981C30.471 17.4631 29.4555 17.2323 28.9735 16.4681L28.3067 15.4116V24.6176C28.3067 25.5254 27.5733 26.2588 26.6656 26.2588C25.7578 26.2588 25.0244 25.5254 25.0244 24.6176V19.6941H24.2038Z" fill="#D7B3FD"/>
</svg>
