<svg width="29" height="24" viewBox="0 0 29 24" fill="none" xmlns="http://www.w3.org/2000/svg">
<path d="M7.67708 0.282349C8.43879 0.282349 9.16931 0.584939 9.70792 1.12355C10.2465 1.66217 10.5491 2.39268 10.5491 3.1544C10.5491 3.91612 10.2465 4.64663 9.70792 5.18525C9.16931 5.72386 8.43879 6.02645 7.67708 6.02645C6.91536 6.02645 6.18484 5.72386 5.64623 5.18525C5.10762 4.64663 4.80503 3.91612 4.80503 3.1544C4.80503 2.39268 5.10762 1.66217 5.64623 1.12355C6.18484 0.584939 6.91536 0.282349 7.67708 0.282349ZM4.44602 21.8227V18.2327H3.64723C3.15808 18.2327 2.81254 17.7525 2.96512 17.2858L4.36076 13.0944L3.07731 14.7907C2.59714 15.4234 1.69513 15.5446 1.06687 15.0689C0.438611 14.5932 0.312959 13.6912 0.788642 13.0585L3.43183 9.57164C4.43704 8.24332 6.01218 7.46248 7.67708 7.46248C9.34197 7.46248 10.9171 8.24332 11.9223 9.57164L14.5655 13.0585C15.0457 13.6912 14.92 14.5932 14.2873 15.0689C13.6545 15.5446 12.7525 15.4234 12.2768 14.7907L10.9934 13.0944L12.389 17.2858C12.5461 17.7525 12.1961 18.2327 11.7069 18.2327H10.9081V21.8227C10.9081 22.617 10.2664 23.2588 9.47211 23.2588C8.67781 23.2588 8.03608 22.617 8.03608 21.8227V18.2327H7.31807V21.8227C7.31807 22.617 6.67635 23.2588 5.88204 23.2588C5.08774 23.2588 4.44602 22.617 4.44602 21.8227ZM22.0373 0.282349C22.799 0.282349 23.5296 0.584939 24.0682 1.12355C24.6068 1.66217 24.9094 2.39268 24.9094 3.1544C24.9094 3.91612 24.6068 4.64663 24.0682 5.18525C23.5296 5.72386 22.799 6.02645 22.0373 6.02645C21.2756 6.02645 20.5451 5.72386 20.0065 5.18525C19.4679 4.64663 19.1653 3.91612 19.1653 3.1544C19.1653 2.39268 19.4679 1.66217 20.0065 1.12355C20.5451 0.584939 21.2756 0.282349 22.0373 0.282349ZM21.6783 17.5147V21.8227C21.6783 22.617 21.0366 23.2588 20.2423 23.2588C19.448 23.2588 18.8063 22.617 18.8063 21.8227V13.7675L18.2274 14.6875C17.8055 15.3606 16.917 15.5581 16.2484 15.1362C15.5797 14.7144 15.3778 13.8259 15.7996 13.1572L18.1197 9.47291C18.9095 8.22088 20.2872 7.45799 21.7636 7.45799H22.3156C23.7965 7.45799 25.1741 8.21639 25.9595 9.47291L28.2796 13.1617C28.7014 13.8348 28.4994 14.7189 27.8308 15.1407C27.1621 15.5626 26.2736 15.3606 25.8518 14.692L25.2684 13.7675V21.8227C25.2684 22.617 24.6267 23.2588 23.8324 23.2588C23.0381 23.2588 22.3963 22.617 22.3963 21.8227V17.5147H21.6783Z" fill="#7DD2FB"/>
</svg>
