<svg width="24" height="21" viewBox="0 0 24 21" fill="none" xmlns="http://www.w3.org/2000/svg">
<path d="M6.15178 0.564697C6.80468 0.564697 7.43084 0.82406 7.89251 1.28573C8.35417 1.7474 8.61354 2.37356 8.61354 3.02646C8.61354 3.67935 8.35417 4.30551 7.89251 4.76718C7.43084 5.22885 6.80468 5.48821 6.15178 5.48821C5.49888 5.48821 4.87272 5.22885 4.41105 4.76718C3.94939 4.30551 3.69002 3.67935 3.69002 3.02646C3.69002 2.37356 3.94939 1.7474 4.41105 1.28573C4.87272 0.82406 5.49888 0.564697 6.15178 0.564697ZM3.3823 19.0279V15.9507H2.69763C2.27836 15.9507 1.98218 15.5391 2.11296 15.1391L3.30922 11.5464L2.20912 13.0004C1.79755 13.5428 1.0244 13.6466 0.48589 13.2389C-0.0526191 12.8312 -0.160321 12.058 0.247408 11.5157L2.51299 8.52695C3.37461 7.38838 4.72473 6.71909 6.15178 6.71909C7.57883 6.71909 8.92895 7.38838 9.79057 8.52695L12.0562 11.5157C12.4677 12.058 12.36 12.8312 11.8177 13.2389C11.2753 13.6466 10.5022 13.5428 10.0944 13.0004L8.99434 11.5464L10.1906 15.1391C10.3252 15.5391 10.0252 15.9507 9.60593 15.9507H8.92126V19.0279C8.92126 19.7087 8.37121 20.2588 7.69038 20.2588C7.00955 20.2588 6.4595 19.7087 6.4595 19.0279V15.9507H5.84406V19.0279C5.84406 19.7087 5.29401 20.2588 4.61318 20.2588C3.93235 20.2588 3.3823 19.7087 3.3823 19.0279ZM18.4606 0.564697C19.1135 0.564697 19.7396 0.82406 20.2013 1.28573C20.663 1.7474 20.9223 2.37356 20.9223 3.02646C20.9223 3.67935 20.663 4.30551 20.2013 4.76718C19.7396 5.22885 19.1135 5.48821 18.4606 5.48821C17.8077 5.48821 17.1815 5.22885 16.7198 4.76718C16.2582 4.30551 15.9988 3.67935 15.9988 3.02646C15.9988 2.37356 16.2582 1.7474 16.7198 1.28573C17.1815 0.82406 17.8077 0.564697 18.4606 0.564697ZM18.1529 15.3352V19.0279C18.1529 19.7087 17.6028 20.2588 16.922 20.2588C16.2411 20.2588 15.6911 19.7087 15.6911 19.0279V12.1234L15.1949 12.912C14.8333 13.4889 14.0717 13.6582 13.4986 13.2966C12.9255 12.935 12.7524 12.1734 13.1139 11.6003L15.1026 8.44232C15.7796 7.36915 16.9604 6.71525 18.2259 6.71525H18.6991C19.9684 6.71525 21.1493 7.3653 21.8224 8.44232L23.811 11.6041C24.1726 12.1811 23.9995 12.9389 23.4264 13.3005C22.8533 13.662 22.0917 13.4889 21.7301 12.9158L21.23 12.1234V19.0279C21.23 19.7087 20.68 20.2588 19.9992 20.2588C19.3183 20.2588 18.7683 19.7087 18.7683 19.0279V15.3352H18.1529Z" fill="#FBD24D"/>
</svg>
