<svg width="20" height="18" viewBox="0 0 20 18" fill="none" xmlns="http://www.w3.org/2000/svg">
<path d="M5.12648 0.847046C5.67057 0.847046 6.19236 1.06318 6.57709 1.44791C6.96181 1.83263 7.17795 2.35443 7.17795 2.89851C7.17795 3.44259 6.96181 3.96439 6.57709 4.34912C6.19236 4.73384 5.67057 4.94998 5.12648 4.94998C4.5824 4.94998 4.0606 4.73384 3.67588 4.34912C3.29115 3.96439 3.07502 3.44259 3.07502 2.89851C3.07502 2.35443 3.29115 1.83263 3.67588 1.44791C4.0606 1.06318 4.5824 0.847046 5.12648 0.847046ZM2.81859 16.233V13.6687H2.24802C1.89863 13.6687 1.65181 13.3257 1.7608 12.9924L2.75768 9.9985L1.84093 11.2101C1.49795 11.6621 0.853667 11.7487 0.404909 11.4089C-0.0438492 11.0691 -0.133601 10.4248 0.206173 9.97286L2.09416 7.48225C2.81217 6.53345 3.93727 5.97571 5.12648 5.97571C6.31569 5.97571 7.44079 6.53345 8.1588 7.48225L10.0468 9.97286C10.3898 10.4248 10.3 11.0691 9.84806 11.4089C9.39609 11.7487 8.75181 11.6621 8.41203 11.2101L7.49528 9.9985L8.49217 12.9924C8.60436 13.3257 8.35433 13.6687 8.00494 13.6687H7.43438V16.233C7.43438 16.8004 6.97601 17.2588 6.40865 17.2588C5.84129 17.2588 5.38292 16.8004 5.38292 16.233V13.6687H4.87005V16.233C4.87005 16.8004 4.41168 17.2588 3.84432 17.2588C3.27696 17.2588 2.81859 16.8004 2.81859 16.233ZM15.3838 0.847046C15.9279 0.847046 16.4497 1.06318 16.8344 1.44791C17.2191 1.83263 17.4353 2.35443 17.4353 2.89851C17.4353 3.44259 17.2191 3.96439 16.8344 4.34912C16.4497 4.73384 15.9279 4.94998 15.3838 4.94998C14.8397 4.94998 14.3179 4.73384 13.9332 4.34912C13.5485 3.96439 13.3323 3.44259 13.3323 2.89851C13.3323 2.35443 13.5485 1.83263 13.9332 1.44791C14.3179 1.06318 14.8397 0.847046 15.3838 0.847046ZM15.1274 13.1558V16.233C15.1274 16.8004 14.669 17.2588 14.1016 17.2588C13.5343 17.2588 13.0759 16.8004 13.0759 16.233V10.4793L12.6624 11.1364C12.3611 11.6172 11.7264 11.7583 11.2488 11.457C10.7712 11.1557 10.627 10.521 10.9283 10.0434L12.5855 7.41173C13.1496 6.51742 14.1337 5.9725 15.1883 5.9725H15.5825C16.6403 5.9725 17.6244 6.51422 18.1853 7.41173L19.8425 10.0466C20.1438 10.5274 19.9996 11.1589 19.522 11.4602C19.0444 11.7615 18.4097 11.6172 18.1084 11.1396L17.6917 10.4793V16.233C17.6917 16.8004 17.2333 17.2588 16.666 17.2588C16.0986 17.2588 15.6402 16.8004 15.6402 16.233V13.1558H15.1274Z" fill="#5EE9D3"/>
</svg>
