<svg width="31" height="27" viewBox="0 0 31 27" fill="none" xmlns="http://www.w3.org/2000/svg">
<path d="M28.8334 24.5468H2.16669L23.86 12.5468H28.8334V24.5468Z" fill="#D7B3FD" stroke="#D7B3FD" stroke-width="4" stroke-miterlimit="2" stroke-linecap="round" stroke-linejoin="round"/>
<path d="M2.07135 10.8007L4.22668 11.8667L15.774 5.20006L15.9287 2.80139" stroke="#D7B3FD" stroke-width="4" stroke-miterlimit="2" stroke-linecap="round" stroke-linejoin="round"/>
<path d="M7.72003 14.5867C8.25046 14.5867 8.75917 14.376 9.13425 14.0009C9.50932 13.6258 9.72003 13.1171 9.72003 12.5867C9.72003 12.0562 9.50932 11.5475 9.13425 11.1725C8.75917 10.7974 8.25046 10.5867 7.72003 10.5867C7.1896 10.5867 6.68089 10.7974 6.30582 11.1725C5.93075 11.5475 5.72003 12.0562 5.72003 12.5867C5.72003 13.1171 5.93075 13.6258 6.30582 14.0009C6.68089 14.376 7.1896 14.5867 7.72003 14.5867ZM15.1334 10.5867C15.6638 10.5867 16.1725 10.376 16.5476 10.0009C16.9227 9.62581 17.1334 9.1171 17.1334 8.58667C17.1334 8.05624 16.9227 7.54753 16.5476 7.17246C16.1725 6.79738 15.6638 6.58667 15.1334 6.58667C14.6029 6.58667 14.0942 6.79738 13.7192 7.17246C13.3441 7.54753 13.1334 8.05624 13.1334 8.58667C13.1334 9.1171 13.3441 9.62581 13.7192 10.0009C14.0942 10.376 14.6029 10.5867 15.1334 10.5867Z" fill="#D7B3FD"/>
</svg>
