<svg width="31" height="11" viewBox="0 0 31 11" fill="none" xmlns="http://www.w3.org/2000/svg">
<path d="M11 8.74997C11 9.99497 9.99499 11 8.74999 11C7.50499 11 6.49999 9.99497 6.49999 8.74997C6.49999 7.50497 7.50499 6.49997 8.74999 6.49997C9.99499 6.49997 11 7.50497 11 8.74997ZM22.25 6.49997C21.005 6.49997 20 7.50497 20 8.74997C20 9.99497 21.005 11 22.25 11C23.495 11 24.5 9.99497 24.5 8.74997C24.5 7.50497 23.495 6.49997 22.25 6.49997ZM29.885 0.784972C29.21 0.304972 28.25 0.454972 27.785 1.11497L27.59 1.38497C27.32 1.77497 26.855 1.99997 26.39 1.99997H4.60999C4.14499 1.99997 3.69499 1.77497 3.40999 1.38497L3.21499 1.11497C2.74999 0.454972 1.78999 0.304972 1.11499 0.784972C0.43999 1.24997 0.30499 2.22497 0.78499 2.88497L0.979989 3.15497C1.81999 4.30997 3.18499 4.99997 4.60999 4.99997H26.39C27.815 4.99997 29.18 4.30997 30.02 3.15497L30.215 2.88497C30.695 2.22497 30.56 1.24997 29.885 0.784972Z" fill="#7DD2FB"/>
</svg>
