<svg width="23" height="30" viewBox="0 0 23 30" fill="none" xmlns="http://www.w3.org/2000/svg">
<path d="M21.8733 23.52C22.0733 23.72 22.1667 23.9334 22.1667 24.1734C22.1667 24.3334 22.0867 24.56 21.9267 24.76C21.42 25.4667 20.78 26.0134 19.9933 26.4134C19.2067 26.8 18.3667 27 17.46 27H5.54001C4.59334 27 3.72668 26.8 2.95334 26.4134C2.16668 26.0134 1.50001 25.4667 1.00668 24.76C0.894924 24.5847 0.834851 24.3813 0.833344 24.1734C0.833344 23.9334 0.926677 23.72 1.10001 23.52C1.27334 23.32 1.50001 23.2267 1.78001 23.2267C2.08668 23.2267 2.34001 23.36 2.54001 23.6667C3.08668 24.3334 3.79334 24.8134 4.66001 25.0534L8.59334 20.28L6.88668 15.0934C6.64668 14.3334 6.75334 13.6667 7.18001 13L10.1667 8.14671H7.23334L4.83334 12.0267L2.71334 10.68L5.83334 5.66671H12.9933C13.5533 5.66671 13.9933 5.82671 14.3533 6.13337C14.7 6.45337 14.94 6.73337 15.06 6.96004L15.7 8.49337C16.1667 9.52004 16.8333 10.3334 17.7667 11C18.7 11.6 19.74 11.92 20.8733 11.92V14.4534C19.42 14.4534 18.1 14.0934 16.8733 13.3867C15.6975 12.7163 14.7076 11.7631 13.9933 10.6134L11.7133 14.2134L17.1133 17.5734V25.12H17.46C18.06 25.12 18.6067 25 19.14 24.7067C19.6733 24.4134 20.1133 24.08 20.46 23.6667C20.66 23.36 20.9 23.2267 21.1667 23.2267C21.4333 23.2267 21.6733 23.3334 21.8733 23.52ZM14.6467 19.3334L10.2333 16.5734L11.5 20.76L7.82001 25.12H14.6467V19.3334ZM15.5 0.333374C14.0333 0.333374 12.8333 1.53337 12.8333 3.00004C12.8333 4.46671 14.0333 5.66671 15.5 5.66671C16.9667 5.66671 18.1667 4.48004 18.1667 3.00004C18.1667 1.52004 16.98 0.333374 15.5 0.333374ZM6.16668 27.6667C5.62001 27.6667 5.16668 28.12 5.16668 28.6667C5.16668 29.2134 5.62001 29.6667 6.16668 29.6667C6.71334 29.6667 7.16668 29.2134 7.16668 28.6667C7.16668 28.12 6.71334 27.6667 6.16668 27.6667ZM16.8333 27.6667C16.2867 27.6667 15.8333 28.12 15.8333 28.6667C15.8333 29.2134 16.2867 29.6667 16.8333 29.6667C17.38 29.6667 17.8333 29.2134 17.8333 28.6667C17.8333 28.12 17.38 27.6667 16.8333 27.6667Z" fill="#FBD24D"/>
</svg>
