<svg width="80" height="80" viewBox="0 0 80 80" fill="none" xmlns="http://www.w3.org/2000/svg">
<g id="as-white-logo-final 1" clip-path="url(#clip0_133_419)">
<rect width="80" height="80" fill="white"/>
<g id="Group">
<path id="Vector" d="M0 40V80H40H80V40V0H40H0V40ZM44.64 2.144C55.04 3.43999 64.224 8.784 70.608 17.248C74.64 22.608 77.296 29.52 77.936 36.384C78.16 38.88 78.048 43.392 77.68 45.76C75.6 59.376 66.224 70.88 53.232 75.744C51.28 76.48 47.888 77.36 45.76 77.68C43.392 78.048 38.88 78.16 36.384 77.936C22.032 76.592 9.664 67.216 4.4 53.68C2.544 48.928 1.824 44.528 1.968 38.832C2.048 35.232 2.224 33.936 3.056 30.56C6.192 17.824 16.224 7.328 28.96 3.472C30.624 2.96 33.904 2.28799 35.52 2.09599C37.52 1.87199 42.656 1.904 44.64 2.144Z" fill="black"/>
<path id="Vector_2" d="M33.264 8.71999C28.56 9.74399 23.312 12.272 19.84 15.168C16.72 17.776 14.08 20.864 12.32 23.968C10.72 26.8 10.624 31.088 12.112 34.336C13.072 36.464 14.496 38.272 16.56 39.952C18.608 41.616 22.016 43.072 22.272 42.384C23.6 39.008 35.36 8.46399 35.36 8.39999C35.36 8.27199 35.104 8.31999 33.264 8.71999Z" fill="black"/>
<path id="Vector_3" d="M44.64 8.39996C44.64 8.47996 53.776 32.208 53.824 32.256C53.824 32.272 54.416 32.192 55.12 32.064C55.824 31.952 57.344 31.856 58.48 31.856C60.176 31.84 60.864 31.92 62.16 32.24C65.248 33.008 67.984 34.656 70.608 37.328C71.376 38.112 72 38.672 72 38.576C72 37.904 71.616 35.008 71.344 33.6C70.4 28.8 67.888 23.568 64.64 19.616C63.664 18.416 61.616 16.4 60.16 15.168C56.64 12.224 51.392 9.71196 46.624 8.70396C44.608 8.28796 44.64 8.28796 44.64 8.39996Z" fill="black"/>
<path id="Vector_4" d="M39.792 11.632C39.744 11.696 39.12 13.632 38.4 15.92C36.608 21.536 35.28 25.28 31.92 34.08C30.352 38.176 29.04 41.648 29.008 41.808C28.848 42.368 33.744 40.448 40.8 37.168C42.864 36.208 45.328 35.104 46.288 34.736C47.232 34.352 48 33.984 48 33.904C48 33.84 47.056 31.312 45.904 28.304C43.296 21.456 41.744 16.944 40.528 12.656C40.256 11.696 39.984 11.328 39.792 11.632Z" fill="black"/>
<path id="Vector_5" d="M56.048 37.392C55.904 37.504 56.944 40.368 60.128 48.64C62.496 54.752 64.48 59.904 64.544 60.08C64.656 60.384 64.672 60.384 64.976 60C66.992 57.456 69.088 53.696 70.128 50.72L70.736 49.04L70.4 47.76C69.776 45.328 68.576 43.28 66.656 41.344C63.856 38.56 61.568 37.472 58.16 37.344C57.104 37.296 56.144 37.328 56.048 37.392Z" fill="black"/>
<path id="Vector_6" d="M8.016 40.048C7.984 43.216 8.576 46.816 9.616 50C10.688 53.248 12.88 57.312 15.024 60C15.328 60.384 15.344 60.384 15.456 60.08C15.52 59.904 16.512 57.344 17.648 54.4C18.784 51.456 19.808 48.784 19.92 48.464L20.128 47.872L18.768 47.44C14.768 46.128 11.36 43.344 8.288 38.88C8.032 38.496 8.016 38.528 8.016 40.048Z" fill="black"/>
<path id="Vector_7" d="M47.8881 39.68C45.8241 40.512 44.1121 41.28 39.7441 43.328C34.7841 45.648 31.6801 46.8 28.1601 47.6L26.6561 47.936L23.4081 56.416C21.6321 61.072 20.1921 64.96 20.2401 65.072C20.3841 65.472 23.6481 67.552 25.8081 68.624C34.8641 73.104 45.0241 73.12 54.0641 68.688C56.0321 67.728 59.2481 65.728 59.6801 65.2C59.8241 65.024 58.8001 62.192 54.9601 52.048C52.2561 44.944 50.0001 39.072 49.9361 39.008C49.8881 38.944 48.9601 39.248 47.8881 39.68Z" fill="black"/>
</g>
</g>
<defs>
<clipPath id="clip0_133_419">
<rect width="80" height="80" fill="white"/>
</clipPath>
</defs>
</svg>
