<svg width="82" height="82" viewBox="0 0 82 82" fill="none" xmlns="http://www.w3.org/2000/svg">
<path d="M41 0.375C32.9652 0.375 25.1107 2.75762 18.43 7.22155C11.7492 11.6855 6.54222 18.0302 3.46741 25.4535C0.392602 32.8767 -0.411908 41.0451 1.15562 48.9255C2.72314 56.806 6.5923 64.0447 12.2738 69.7262C17.9553 75.4077 25.194 79.2769 33.0745 80.8444C40.955 82.4119 49.1233 81.6074 56.5465 78.5326C63.9698 75.4578 70.3145 70.2508 74.7785 63.57C79.2424 56.8893 81.625 49.0349 81.625 41C81.6136 30.2291 77.3299 19.9026 69.7137 12.2864C62.0975 4.67015 51.771 0.386374 41 0.375ZM44.125 75.2305V50.375H53.5C54.3288 50.375 55.1237 50.0458 55.7097 49.4597C56.2958 48.8737 56.625 48.0788 56.625 47.25C56.625 46.4212 56.2958 45.6263 55.7097 45.0403C55.1237 44.4542 54.3288 44.125 53.5 44.125H44.125V34.75C44.125 33.0924 44.7835 31.5027 45.9556 30.3306C47.1277 29.1585 48.7174 28.5 50.375 28.5H56.625C57.4538 28.5 58.2487 28.1708 58.8347 27.5847C59.4208 26.9987 59.75 26.2038 59.75 25.375C59.75 24.5462 59.4208 23.7513 58.8347 23.1653C58.2487 22.5792 57.4538 22.25 56.625 22.25H50.375C47.0598 22.25 43.8804 23.567 41.5362 25.9112C39.192 28.2554 37.875 31.4348 37.875 34.75V44.125H28.5C27.6712 44.125 26.8764 44.4542 26.2903 45.0403C25.7043 45.6263 25.375 46.4212 25.375 47.25C25.375 48.0788 25.7043 48.8737 26.2903 49.4597C26.8764 50.0458 27.6712 50.375 28.5 50.375H37.875V75.2305C29.0656 74.4263 20.9053 70.257 15.0916 63.5897C9.2778 56.9224 6.25811 48.2706 6.66062 39.4337C7.06313 30.5968 10.8569 22.2553 17.2527 16.1442C23.6485 10.033 32.154 6.62281 41 6.62281C49.846 6.62281 58.3516 10.033 64.7474 16.1442C71.1432 22.2553 74.9369 30.5968 75.3394 39.4337C75.7419 48.2706 72.7222 56.9224 66.9085 63.5897C61.0947 70.257 52.9344 74.4263 44.125 75.2305Z" fill="black"/>
</svg>
