<svg width="88" height="70" viewBox="0 0 88 70" fill="none" xmlns="http://www.w3.org/2000/svg">
<path d="M58.2344 32.3984L39.4844 19.8984C39.0136 19.5844 38.4665 19.404 37.9012 19.3766C37.336 19.3493 36.7739 19.4759 36.275 19.743C35.7761 20.0101 35.3591 20.4076 35.0685 20.8932C34.7779 21.3787 34.6246 21.9341 34.625 22.5V47.5C34.6246 48.0659 34.7779 48.6213 35.0685 49.1068C35.3591 49.5924 35.7761 49.99 36.275 50.2571C36.7739 50.5242 37.336 50.6508 37.9012 50.6234C38.4665 50.596 39.0136 50.4156 39.4844 50.1016L58.2344 37.6016C58.663 37.3163 59.0145 36.9296 59.2577 36.4757C59.5008 36.0218 59.628 35.5149 59.628 35C59.628 34.4851 59.5008 33.9782 59.2577 33.5243C59.0145 33.0705 58.663 32.6837 58.2344 32.3984ZM40.875 41.6602V28.3594L50.8672 35L40.875 41.6602ZM85.5352 12.1563C85.1671 10.7162 84.4619 9.38431 83.4778 8.27045C82.4936 7.15659 81.2587 6.29268 79.875 5.75001C66.4844 0.57814 45.1719 0.625015 44 0.625015C42.8281 0.625015 21.5156 0.57814 8.125 5.75001C6.74126 6.29268 5.50638 7.15659 4.52224 8.27045C3.53811 9.38431 2.83291 10.7162 2.46484 12.1563C1.45313 16.0547 0.25 23.1797 0.25 35C0.25 46.8203 1.45313 53.9453 2.46484 57.8438C2.83236 59.2845 3.53731 60.6172 4.52148 61.7318C5.50565 62.8464 6.74081 63.7109 8.125 64.2539C20.9531 69.2031 41.0312 69.375 43.7422 69.375H44.2578C46.9688 69.375 67.0586 69.2031 79.875 64.2539C81.2592 63.7109 82.4944 62.8464 83.4785 61.7318C84.4627 60.6172 85.1676 59.2845 85.5352 57.8438C86.5469 53.9375 87.75 46.8203 87.75 35C87.75 23.1797 86.5469 16.0547 85.5352 12.1563ZM79.4844 56.2969C79.3653 56.7761 79.1344 57.2204 78.8105 57.5931C78.4866 57.9659 78.079 58.2566 77.6211 58.4414C65.2578 63.2148 44.2305 63.1289 44.0273 63.1289H44C43.7891 63.1289 22.7773 63.207 10.4062 58.4414C9.94832 58.2566 9.54071 57.9659 9.21683 57.5931C8.89295 57.2204 8.66202 56.7761 8.54297 56.2969C7.59375 52.7305 6.5 46.1602 6.5 35C6.5 23.8399 7.59375 17.2695 8.51562 13.7227C8.63246 13.2406 8.86239 12.7932 9.18639 12.4176C9.5104 12.0419 9.91917 11.7488 10.3789 11.5625C22.3008 6.95705 42.2773 6.87501 43.9141 6.87501H44.0195C44.2305 6.87501 65.2617 6.8047 77.6133 11.5625C78.0712 11.7473 78.4788 12.038 78.8027 12.4108C79.1266 12.7836 79.3575 13.2278 79.4766 13.707C80.4062 17.2695 81.5 23.8399 81.5 35C81.5 46.1602 80.4062 52.7305 79.4844 56.2774V56.2969Z" fill="black"/>
</svg>
